<svg xmlns="http://www.w3.org/2000/svg" viewBox="0 0 48 48" width="24px" height="24px">
  <path fill="#EA4335" d="M24 9.5c3.39 0 6.48 1.22 8.88 3.22l6.62-6.62C35.24 2.97 30.02 1 24 1 14.61 1 6.75 6.83 3.34 14.73l7.89 6.16C13.15 12.6 18.27 9.5 24 9.5z"></path>
  <path fill="#34A853" d="M24 46c5.8 0 10.71-1.93 14.23-5.23l-7.13-5.8C28.92 36.92 26.59 37.5 24 37.5c-5.72 0-10.65-3.62-12.45-8.7L3.66 35.2C6.94 42.39 14.82 46 24 46z"></path>
  <path fill="#FBBC05" d="M43.46 20H24v8.5h11.16C34.38 32.27 30.8 35.5 24 35.5c-3.48 0-6.6-1.5-8.8-3.92l-7.89 6.16C12.04 41.68 17.71 44.5 24 44.5z"></path>
  <path fill="#4285F4" d="M43.46 20c-.12-.45-.27-.87-.44-1.3v-7.2H24v8.5h11.16C33.27 21.8 32 23.58 32 24c0 1.66 1.67 4.5 7.86 4.5 2.56 0 3.48-.34 3.6-.4z"></path>
</svg>
